# xmcd
#
# Track frame offsets:
#	150
#	13950
#	24765
#	45881
#	60780
#	75993
#	95602
#	116400
#	138468
#	171618
#	185625
#	209775
#
# Disc length: 3002 seconds
#
# Revision: 0
# Processed by: cddbd v1.5.1PL0 Copyright (c) Steve Scherf et al.
# Submitted via: dBpowerAMP V4.0
#
DISCID=9a0bb80c
DTITLE=R.P.M. - Souvenir
DYEAR=1900
DGENRE=Country
TTITLE0=Let It Be Me
TTITLE1=Summer's Here
TTITLE2=Pancho and Lefty
TTITLE3=Wild World
TTITLE4=Some Broken Hearts Never Mend
TTITLE5=Key Largo
TTITLE6=A Pirate Looks At Forty
TTITLE7=Amie
TTITLE8=Taxi
TTITLE9=Promised Land
TTITLE10=The Boxer
TTITLE11=Sixteen Tons
EXTD=
EXTT0=
EXTT1=
EXTT2=
EXTT3=
EXTT4=
EXTT5=
EXTT6=
EXTT7=
EXTT8=
EXTT9=
EXTT10=
EXTT11=
PLAYORDER=
